<?xml version="1.0" encoding="utf-8"?>
<!-- Generator: Adobe Illustrator 15.1.0, SVG Export Plug-In . SVG Version: 6.00 Build 0)  -->
<!DOCTYPE svg PUBLIC "-//W3C//DTD SVG 1.1//EN" "http://www.w3.org/Graphics/SVG/1.1/DTD/svg11.dtd">
<svg version="1.1" id="Layer_1" xmlns="http://www.w3.org/2000/svg" xmlns:xlink="http://www.w3.org/1999/xlink" x="0px" y="0px"
	 width="64px" height="54.135px" viewBox="0 0 64 54.135" enable-background="new 0 0 64 54.135" xml:space="preserve">
<g>
	<g>
		<path fill="#ED1A3B" d="M39.511,5.2c-9.075,0-16.433,7.356-16.433,16.432s7.357,16.433,16.433,16.433s16.432-7.357,16.432-16.433
			S48.586,5.2,39.511,5.2z M39.511,34.91c-7.334,0-13.278-5.945-13.278-13.278S32.177,8.353,39.511,8.353
			s13.278,5.945,13.278,13.278S46.845,34.91,39.511,34.91z"/>
	</g>
	<g>
		<path fill="#ED1A3B" d="M10.133,48.935c-0.598,0-1.19-0.257-1.601-0.754c-0.729-0.883-0.604-2.191,0.278-2.921l18.092-14.938
			c0.884-0.729,2.192-0.604,2.921,0.279c0.729,0.884,0.604,2.191-0.278,2.922L11.453,48.46
			C11.066,48.779,10.598,48.935,10.133,48.935z"/>
	</g>
</g>
</svg>
