<?xml version="1.0" encoding="utf-8"?>
<!-- Generator: Adobe Illustrator 15.1.0, SVG Export Plug-In . SVG Version: 6.00 Build 0)  -->
<!DOCTYPE svg PUBLIC "-//W3C//DTD SVG 1.1//EN" "http://www.w3.org/Graphics/SVG/1.1/DTD/svg11.dtd">
<svg version="1.1" id="Layer_1" xmlns="http://www.w3.org/2000/svg" xmlns:xlink="http://www.w3.org/1999/xlink" x="0px" y="0px"
	 width="78.333px" height="54.135px" viewBox="0 0 78.333 54.135" enable-background="new 0 0 78.333 54.135" xml:space="preserve">
<g>
	<circle fill="#ED1A3B" cx="19.03" cy="44.1" r="6.416"/>
	<circle fill="#ED1A3B" cx="55.227" cy="44.1" r="6.416"/>
	<path fill="#ED1A3B" d="M72.668,26.757L58.44,23.172L53.616,4.242H4.333V44.1h6.131c0-4.731,3.834-8.565,8.565-8.565
		c4.731,0,8.567,3.834,8.567,8.565h18.312h0.726c0-4.731,3.834-8.565,8.564-8.565c4.731,0,8.567,3.834,8.567,8.565h10.097
		L72.668,26.757z M15.087,24.607H6.845V9.593h8.243V24.607z M25.349,24.607h-8.243V9.593h8.243V24.607z M35.612,24.607h-8.243V9.593
		h8.243V24.607z M45.875,39.441H37.63V9.593h8.244V39.441z M47.309,24.607V9.593h5.53l3.344,14.925L47.309,24.607z"/>
</g>
</svg>
