<?xml version="1.0" encoding="utf-8"?>
<!-- Generator: Adobe Illustrator 15.1.0, SVG Export Plug-In . SVG Version: 6.00 Build 0)  -->
<!DOCTYPE svg PUBLIC "-//W3C//DTD SVG 1.1//EN" "http://www.w3.org/Graphics/SVG/1.1/DTD/svg11.dtd">
<svg version="1.1" id="Layer_1" xmlns="http://www.w3.org/2000/svg" xmlns:xlink="http://www.w3.org/1999/xlink" x="0px" y="0px"
	 width="114.562px" height="973.452px" viewBox="0 0 114.562 973.452" enable-background="new 0 0 114.562 973.452"
	 xml:space="preserve">
<line fill="none" stroke="#FFFFFF" stroke-width="3" stroke-miterlimit="10" x1="52.685" y1="34.433" x2="52.685" y2="933.956"/>
<path fill="none" stroke="#FFFFFF" stroke-width="3" stroke-miterlimit="10" d="M80.341,34.433
	c0,15.274-12.382,27.656-27.656,27.656S25.028,49.707,25.028,34.433S37.41,6.776,52.685,6.776S80.341,19.159,80.341,34.433"/>
<path fill="#FFFFFF" d="M66.464,34.433c0,7.61-6.17,13.779-13.779,13.779s-13.779-6.169-13.779-13.779s6.17-13.779,13.779-13.779
	S66.464,26.823,66.464,34.433"/>
<path fill="none" stroke="#FFFFFF" stroke-width="3" stroke-miterlimit="10" d="M80.341,933.956
	c0,15.274-12.382,27.656-27.656,27.656s-27.656-12.382-27.656-27.656c0-15.273,12.382-27.656,27.656-27.656
	S80.341,918.682,80.341,933.956"/>
<path fill="#FFFFFF" d="M66.464,933.956c0,7.61-6.17,13.779-13.779,13.779s-13.779-6.169-13.779-13.779
	c0-7.609,6.17-13.779,13.779-13.779S66.464,926.346,66.464,933.956"/>
<g>
	<circle fill="#FFF200" cx="77.118" cy="725.897" r="7.846"/>
	<polygon fill="#FFF200" points="77.474,771.801 69.272,736.747 85.674,736.747 	"/>
</g>
<line fill="none" stroke="#FFFFFF" stroke-width="3" stroke-miterlimit="10" x1="33.562" y1="779.386" x2="114.562" y2="779.386"/>
<text transform="matrix(1 0 0 1 60.3623 801.064)"><tspan x="0" y="0" fill="#FFFFFF" font-family="'HelveticaNeueCE-Thin'" font-size="19.9325">YOU</tspan><tspan x="0" y="26.88" fill="#FFFFFF" font-family="'HelveticaNeueCE-Thin'" font-size="19.9325">ARE</tspan><tspan x="0" y="53.76" fill="#FFFFFF" font-family="'HelveticaNeueCE-Thin'" font-size="19.9325">HERE!</tspan></text>
</svg>
