<?xml version="1.0" encoding="utf-8"?>
<!-- Generator: Adobe Illustrator 15.1.0, SVG Export Plug-In . SVG Version: 6.00 Build 0)  -->
<!DOCTYPE svg PUBLIC "-//W3C//DTD SVG 1.1//EN" "http://www.w3.org/Graphics/SVG/1.1/DTD/svg11.dtd">
<svg version="1.1" id="Layer_1" xmlns="http://www.w3.org/2000/svg" xmlns:xlink="http://www.w3.org/1999/xlink" x="0px" y="0px"
	 width="114.562px" height="973.452px" viewBox="0 0 114.562 973.452" enable-background="new 0 0 114.562 973.452"
	 xml:space="preserve">
<line fill="none" stroke="#FFFFFF" stroke-width="3" stroke-miterlimit="10" x1="52.685" y1="34.433" x2="52.685" y2="933.956"/>
<path fill="none" stroke="#FFFFFF" stroke-width="3" stroke-miterlimit="10" d="M80.341,34.433
	c0,15.274-12.382,27.656-27.656,27.656S25.028,49.707,25.028,34.433S37.41,6.776,52.685,6.776S80.341,19.159,80.341,34.433"/>
<path fill="#FFFFFF" d="M66.464,34.433c0,7.61-6.17,13.779-13.779,13.779s-13.779-6.169-13.779-13.779s6.17-13.779,13.779-13.779
	S66.464,26.823,66.464,34.433"/>
<path fill="none" stroke="#FFFFFF" stroke-width="3" stroke-miterlimit="10" d="M80.341,933.956
	c0,15.274-12.382,27.656-27.656,27.656s-27.656-12.382-27.656-27.656c0-15.273,12.382-27.656,27.656-27.656
	S80.341,918.682,80.341,933.956"/>
<path fill="#FFFFFF" d="M66.464,933.956c0,7.61-6.17,13.779-13.779,13.779s-13.779-6.169-13.779-13.779
	c0-7.609,6.17-13.779,13.779-13.779S66.464,926.346,66.464,933.956"/>
<g>
	<circle fill="#FFF200" cx="77.118" cy="725.897" r="7.846"/>
	<polygon fill="#FFF200" points="77.474,771.801 69.272,736.747 85.674,736.747 	"/>
</g>
<line fill="none" stroke="#FFFFFF" stroke-width="3" stroke-miterlimit="10" x1="33.562" y1="779.386" x2="114.562" y2="779.386"/>
<g>
	<path fill="#FFFFFF" d="M71.245,786.833h0.977l-5.72,8.271v5.96h-0.878v-5.96l-5.681-8.271h0.997l5.143,7.534L71.245,786.833z"/>
	<path fill="#FFFFFF" d="M85.497,796.869c-0.306,0.91-0.747,1.7-1.325,2.371c-0.578,0.672-1.286,1.2-2.123,1.585
		c-0.837,0.386-1.787,0.578-2.851,0.578c-1.062,0-2.017-0.192-2.86-0.578c-0.844-0.385-1.555-0.913-2.132-1.585
		c-0.578-0.671-1.021-1.461-1.326-2.371s-0.458-1.884-0.458-2.921c0-1.036,0.152-2.01,0.458-2.92s0.748-1.701,1.326-2.372
		c0.577-0.671,1.288-1.199,2.132-1.584c0.844-0.386,1.798-0.578,2.86-0.578c1.063,0,2.014,0.192,2.851,0.578
		c0.837,0.385,1.545,0.913,2.123,1.584s1.02,1.462,1.325,2.372s0.459,1.884,0.459,2.92
		C85.956,794.985,85.803,795.958,85.497,796.869z M73.697,796.54c0.266,0.811,0.651,1.518,1.156,2.122
		c0.505,0.605,1.123,1.087,1.854,1.445c0.73,0.359,1.562,0.538,2.491,0.538c0.931,0,1.758-0.179,2.482-0.538
		c0.724-0.358,1.338-0.84,1.844-1.445c0.505-0.604,0.89-1.312,1.155-2.122s0.399-1.675,0.399-2.592s-0.134-1.78-0.399-2.591
		s-0.65-1.519-1.155-2.123c-0.506-0.604-1.12-1.086-1.844-1.445c-0.725-0.358-1.552-0.538-2.482-0.538
		c-0.93,0-1.761,0.18-2.491,0.538c-0.73,0.359-1.349,0.841-1.854,1.445s-0.891,1.312-1.156,2.123s-0.398,1.674-0.398,2.591
		S73.432,795.729,73.697,796.54z"/>
	<path fill="#FFFFFF" d="M88.706,786.833v8.53c0,0.279,0.017,0.605,0.05,0.978s0.1,0.754,0.199,1.146
		c0.1,0.393,0.246,0.777,0.438,1.156s0.455,0.718,0.787,1.017s0.741,0.538,1.227,0.718c0.484,0.18,1.072,0.269,1.764,0.269
		c0.877,0,1.611-0.122,2.202-0.368c0.592-0.246,1.07-0.599,1.436-1.057s0.628-1.013,0.787-1.664c0.16-0.651,0.239-1.382,0.239-2.193
		v-8.53h0.877v8.53c0,0.851-0.09,1.642-0.269,2.372c-0.18,0.731-0.482,1.369-0.907,1.914c-0.426,0.545-0.993,0.974-1.704,1.285
		c-0.711,0.312-1.599,0.469-2.661,0.469c-0.837,0-1.555-0.106-2.152-0.319c-0.599-0.212-1.094-0.488-1.485-0.827
		c-0.393-0.339-0.701-0.728-0.927-1.166c-0.227-0.438-0.398-0.88-0.519-1.325c-0.119-0.445-0.192-0.877-0.219-1.296
		c-0.027-0.418-0.04-0.787-0.04-1.106v-8.53H88.706z"/>
	<path fill="#FFFFFF" d="M66.801,813.712l5.621,14.231h-0.938l-1.794-4.564h-6.816l-1.814,4.564h-0.937l5.721-14.231H66.801z
		 M69.412,822.622l-3.05-8.053h-0.04l-3.169,8.053H69.412z"/>
	<path fill="#FFFFFF" d="M73.438,813.712h5.939c0.625,0,1.209,0.062,1.754,0.189c0.545,0.126,1.023,0.332,1.436,0.617
		c0.412,0.286,0.734,0.661,0.967,1.126c0.232,0.466,0.349,1.044,0.349,1.734c0,0.957-0.269,1.765-0.807,2.422
		c-0.539,0.658-1.286,1.066-2.243,1.226v0.04c0.531,0.066,0.967,0.193,1.306,0.379c0.339,0.187,0.611,0.415,0.817,0.688
		s0.355,0.578,0.448,0.917s0.16,0.694,0.199,1.066c0.04,0.372,0.061,0.744,0.061,1.116s0.006,0.728,0.02,1.066
		c0.013,0.339,0.047,0.651,0.1,0.937c0.053,0.286,0.152,0.522,0.299,0.708h-0.977c-0.133-0.239-0.219-0.519-0.259-0.837
		c-0.04-0.319-0.063-0.654-0.07-1.007c-0.007-0.352-0.007-0.711,0-1.076s-0.01-0.721-0.05-1.066
		c-0.039-0.346-0.123-0.668-0.249-0.967s-0.312-0.562-0.558-0.787c-0.246-0.227-0.575-0.405-0.987-0.538s-0.93-0.2-1.555-0.2h-5.062
		v6.479h-0.877V813.712z M79.377,820.708c0.519,0,1-0.063,1.445-0.189s0.827-0.322,1.146-0.588c0.318-0.266,0.571-0.604,0.757-1.017
		c0.187-0.412,0.279-0.903,0.279-1.476c0-0.531-0.1-0.986-0.299-1.365s-0.466-0.688-0.797-0.927
		c-0.333-0.239-0.718-0.411-1.156-0.518s-0.897-0.16-1.376-0.16h-5.062v6.239H79.377z"/>
	<path fill="#FFFFFF" d="M95.662,827.186v0.758h-9.667v-14.231h9.567v0.757h-8.69v5.701h8.172v0.757h-8.172v6.259H95.662z"/>
	<path fill="#FFFFFF" d="M62.495,847.807v7.017h-0.877v-14.231h0.877v6.458h9.089v-6.458h0.877v14.231h-0.877v-7.017H62.495z"/>
	<path fill="#FFFFFF" d="M84.64,854.066v0.758h-9.667v-14.231h9.567v0.757h-8.69v5.701h8.172v0.757H75.85v6.259H84.64z"/>
	<path fill="#FFFFFF" d="M86.135,840.592h5.939c0.625,0,1.209,0.062,1.754,0.189c0.545,0.126,1.023,0.332,1.436,0.617
		c0.412,0.286,0.734,0.661,0.967,1.126c0.232,0.466,0.349,1.044,0.349,1.734c0,0.957-0.269,1.765-0.807,2.422
		c-0.539,0.658-1.286,1.066-2.243,1.226v0.04c0.531,0.066,0.967,0.193,1.306,0.379c0.339,0.187,0.611,0.415,0.817,0.688
		s0.355,0.578,0.448,0.917s0.16,0.694,0.199,1.066c0.04,0.372,0.061,0.744,0.061,1.116s0.006,0.728,0.02,1.066
		c0.013,0.339,0.047,0.651,0.1,0.937c0.053,0.286,0.152,0.522,0.299,0.708h-0.977c-0.133-0.239-0.219-0.519-0.259-0.837
		c-0.04-0.319-0.063-0.654-0.07-1.007c-0.007-0.352-0.007-0.711,0-1.076s-0.01-0.721-0.05-1.066
		c-0.039-0.346-0.123-0.668-0.249-0.967s-0.312-0.562-0.558-0.787c-0.246-0.227-0.575-0.405-0.987-0.538s-0.93-0.2-1.555-0.2h-5.062
		v6.479h-0.877V840.592z M92.074,847.588c0.519,0,1-0.063,1.445-0.189s0.827-0.322,1.146-0.588c0.318-0.266,0.571-0.604,0.757-1.017
		c0.187-0.412,0.279-0.903,0.279-1.476c0-0.531-0.1-0.986-0.299-1.365s-0.466-0.688-0.797-0.927
		c-0.333-0.239-0.718-0.411-1.156-0.518s-0.897-0.16-1.376-0.16h-5.062v6.239H92.074z"/>
	<path fill="#FFFFFF" d="M108.359,854.066v0.758h-9.667v-14.231h9.567v0.757h-8.69v5.701h8.172v0.757h-8.172v6.259H108.359z"/>
	<path fill="#FFFFFF" d="M110.672,854.824v-2.053h1.017v2.053H110.672z M111.668,840.592v4.804l-0.239,5.78h-0.479l-0.238-5.78
		v-4.804H111.668z"/>
</g>
</svg>
